<?xml version="1.0" standalone="no"?>
<!DOCTYPE svg PUBLIC "-//W3C//DTD SVG 20010904//EN"
 "http://www.w3.org/TR/2001/REC-SVG-20010904/DTD/svg10.dtd">
<svg version="1.0" xmlns="http://www.w3.org/2000/svg"
 width="300.000000pt" height="300.000000pt" viewBox="0 0 300.000000 300.000000"
 preserveAspectRatio="xMidYMid meet">

<g transform="translate(0.000000,300.000000) scale(0.100000,-0.100000)"
fill="#000000" stroke="none">
<path d="M1829 1888 c-1 -156 0 -298 1 -315 2 -50 -7 -53 -45 -18 -213 201
-444 410 -500 453 -153 115 -288 157 -428 134 -302 -51 -460 -378 -323 -668
73 -154 224 -253 424 -277 l42 -5 0 83 0 83 -61 11 c-175 30 -278 135 -287
291 -5 97 21 170 82 233 66 66 106 82 206 82 145 -1 184 -26 535 -355 44 -41
134 -124 200 -185 66 -60 154 -142 195 -180 41 -39 85 -79 98 -89 l22 -19 0
511 0 512 -80 0 -80 0 -1 -282z"/>
<path d="M1078 1359 l2 -511 80 -1 80 -2 0 324 0 323 38 -33 c20 -18 118 -108
217 -200 356 -331 452 -389 644 -389 145 0 253 51 347 167 60 73 85 148 92
264 4 80 1 109 -17 167 -58 192 -221 321 -438 347 l-53 6 0 -86 0 -85 30 0
c40 0 146 -36 185 -62 89 -62 129 -140 130 -253 0 -68 -4 -89 -28 -137 -30
-62 -74 -106 -140 -140 -64 -33 -173 -31 -250 5 -78 36 -128 75 -297 231 -30
29 -113 105 -185 171 -71 65 -189 173 -260 240 -72 66 -141 130 -155 142 l-25
22 3 -510z"/>
</g>
</svg>
